{"title":"Fifty Shades Of Grey 1080p HDRip CROPPED x264 Pimp4003","uid":11727491,"size":2909334308,"categoryP":"video","categoryS":"hd___movies","magnet":"?xt=urn:btih:ea67792f152c7900fd621d7620088a4e43c01afe&amp;dn=Fifty+Shades+Of+Grey+1080p+HDRip+CROPPED+x264+Pimp4003&amp;tr=udp%3A%2F%2Ftracker.openbittorrent.com%3A80&amp;tr=udp%3A%2F%2Fopen.demonii.com%3A1337&amp;tr=udp%3A%2F%2Ftracker.coppersurfer.tk%3A6969&amp;tr=udp%3A%2F%2Fexodus.desync.com%3A6969","seeders":5,"leechers":0,"uploader":"shawnmurthy","files":1,"time":1425137353,"description":"[color=blue][b]...CROPPED OUT ONE LINE OF SUBS..ALSO I TRIED TO TAKE THE SEX SCENES FROM MY CAM THAT I UPLOADED AND TRIED TO SYNC IT UP ON THIS ONE BUT IT CAME OUT VERY VERY BAD..WAITING ON NEW SOURCE FULL WITH MOVIE WITH SEX SCENES...UNTIL THEN WILL KEEP TRYING IF I CAN GET THIS.....ENJOY...PIMP4003.[/b][/color]\n\n[color=red][b]SCREENSHOTS GO HERE...[URL]http://pimp4003DOTnet/torrents.php?id=ea67792f152c7900fd621d7620088a4e43c01afe[/URL][/color][/b]\n\n[color=blue][b]I am looking for: Pre-Retail Supplier Unreleased DVD/BluRay/Web-Dls/R5/CAM/TS If you have something to offer, please contact ME: &lt;a class=&quot;__cf_email__&quot; href=&quot;/cdn-cgi/l/email-protection&quot; data-cfemail=&quot;52223b3f2266626261123a27213a3f333b3e7c313d3f7c&quot;&gt;[email&amp;#160;protected]&lt;/a&gt;&lt;script cf-hash='f9e31' type=&quot;text/javascript&quot;&gt;\n/* &lt;![CDATA[ */!function(){try{var t=&quot;currentScript&quot;in document?document.currentScript:function(){for(var t=document.getElementsByTagName(&quot;script&quot;),e=t.length;e--;)if(t[e].getAttribute(&quot;cf-hash&quot;))return t[e]}();if(t&amp;&amp;t.previousSibling){var e,r,n,i,c=t.previousSibling,a=c.getAttribute(&quot;data-cfemail&quot;);if(a){for(e=&quot;&quot;,r=parseInt(a.substr(0,2),16),n=2;a.length-n;n+=2)i=parseInt(a.substr(n,2),16)^r,e+=String.fromCharCode(i);e=document.createTextNode(e),c.parentNode.replaceChild(e,c)}}}catch(u){}}();/* ]]&gt; */&lt;/script&gt; WE CAN WORK OUT A GREAT DEAL THAT WORKS OUT FOR EVERY PARTY.[/b][/color]\n &lt;a href=&quot;\nhttp://i.imgur.com/J3ny9bJ.jpg&quot; rel=&quot;nofollow&quot; target=&quot;_NEW&quot;&gt;\nhttp://i.imgur.com/J3ny9bJ.jpg&lt;/a&gt;\n &lt;a href=&quot;\nhttp://i.imgur.com/SpsuXOR.png&quot; rel=&quot;nofollow&quot; target=&quot;_NEW&quot;&gt;\nhttp://i.imgur.com/SpsuXOR.png&lt;/a&gt;\n\n[u][b][color=green]PIMP THE ONE AND ONLY PIMPSTER.....PRESENTS[/color][/b][/u]\n\nfacebookDOTcom/OfficialPimp4003[/url][/b][/color]\n &lt;a href=&quot;\nhttp://i.imgur.com/i8nqETE.png&quot; rel=&quot;nofollow&quot; target=&quot;_NEW&quot;&gt;\nhttp://i.imgur.com/i8nqETE.png&lt;/a&gt;\n\nFifty Shades Of Grey 1080p HDRip CROPPED x264 Pimp4003\n &lt;a href=&quot;\nhttp://www.imdb.com/title/tt2322441/&quot; rel=&quot;nofollow&quot; target=&quot;_NEW&quot;&gt;\nhttp://www.imdb.com/title/tt2322441/&lt;/a&gt;\n\nLiterature student Anastasia Steele's life changes forever when she meets handsome, yet tormented, billionaire Christian Grey.\n\nDirector: Sam Taylor-Johnson\n\nWriters: Kelly Marcel (screenplay), E.L. James (novel)\n\nStars: Dakota Johnson, Jamie Dornan, Jennifer Ehle |See full cast and crew Â»\n\nVideo\nID                                       : 1\nFormat                                   : MPEG-4 Visual\nFormat profile                           : Simple@L3\nFormat settings, BVOP                    : No\nFormat settings, QPel                    : No\nFormat settings, GMC                     : No warppoints\nFormat settings, Matrix                  : Default (H.263)\nCodec ID                                 : 20\nDuration                                 : 2h 0mn\nBit rate                                 : 3 126 Kbps\nWidth                                    : 1 920 pixels\nHeight                                   : 688 pixels\nDisplay aspect ratio                     : 2.791\nFrame rate mode                          : Variable\nFrame rate                               : 23.976 fps\nMinimum frame rate                       : 23.976 fps\nMaximum frame rate                       : 24.000 fps\nColor space                              : YUV\nChroma subsampling                       : 4:2:0\nBit depth                                : 8 bits\nScan type                                : Progressive\nCompression mode                         : Lossy\nBits/(Pixel*Frame)                       : 0.099\nStream size                              : 2.62 GiB (97%)\nWriting library                          : ZJMedia MPEG Encoder\n\nAudio\nID                                       : 2\nFormat                                   : AAC\nFormat/Info                              : Advanced Audio Codec\nFormat profile                           : LC\nCodec ID                                 : 40\nDuration                                 : 2h 0mn\nBit rate mode                            : Variable\nBit rate                                 : 96.0 Kbps\nChannel(s)                               : 2 channels\nChannel positions                        : Front: L R\nSampling rate                            : 48.0 KHz\nCompression mode                         : Lossy\nStream size                              : 83.6 MiB (3%)","torrent":{"xt":"urn:btih:ea67792f152c7900fd621d7620088a4e43c01afe","amp;dn":"Fifty+Shades+Of+Grey+1080p+HDRip+CROPPED+x264+Pimp4003","amp;tr":["udp%3A%2F%2Ftracker.openbittorrent.com%3A80","udp%3A%2F%2Fopen.demonii.com%3A1337","udp%3A%2F%2Ftracker.coppersurfer.tk%3A6969","udp%3A%2F%2Fexodus.desync.com%3A6969"],"infoHash":"ea67792f152c7900fd621d7620088a4e43c01afe","infoHashBuffer":{"type":"Buffer","data":[234,103,121,47,21,44,121,0,253,98,29,118,32,8,138,78,67,192,26,254]},"announce":[],"urlList":[]}}